<?xml version="1.0" encoding="UTF-8"?> <!-- Generator: Adobe Illustrator 23.1.1, SVG Export Plug-In . SVG Version: 6.00 Build 0) --> <svg xmlns="http://www.w3.org/2000/svg" xmlns:xlink="http://www.w3.org/1999/xlink" id="Layer_1" x="0px" y="0px" viewBox="0 0 250 75" style="enable-background:new 0 0 250 75;" xml:space="preserve"> <style type="text/css"> .st0{fill:#50BE9E;} .st1{fill:#FFFFFF;} </style> <g> <g> <path d="M95,34l-5.1-0.5c-4.6-0.4-4.8-0.7-4.8-3.8c0-3.7,0.4-4,7.3-4c4,0,6.2,0.2,7.8,0.5l0.4-0.4v-1.3c0-2.2-0.8-3-9.3-3 c-9.5,0-11.5,1.3-11.5,8.3c0,6.3,1.1,7.8,7.2,8.4l5.2,0.5c4.4,0.4,4.8,0.7,4.8,3.8c0,3.9-0.4,4.5-6.9,4.5c-4.9,0-8.1-0.3-10-0.8 l-0.3,0.2V48c0,2.6,1,3.4,10.3,3.4c10.7,0,12.4-1.7,12.4-8.9C102.3,35.3,100.9,34.5,95,34z"></path> <path d="M117.8,30c-3.6,0-5.1,0.9-6.2,2.5c-0.3-1.8-1-2.2-2.4-2.2h-2.4l-0.4,0.4v29.7l5.3-0.8l0-10.2c1,1.7,2.7,2,6.4,2 c5.9,0,7.3-1.4,7.3-10.7C125.4,31.3,124.4,30,117.8,30z M115.9,47.4c-3.5,0-4.2-0.7-4.2-3.1v-6.9c0-2.8,1.1-3.3,4.1-3.3 c3.9,0,4.2,0.6,4.2,6.7C120,46.7,119.6,47.4,115.9,47.4z"></path> <path d="M138.8,47h-0.6c-0.8,0-0.9-0.1-1.1-1l-3.8-15.8h-5.6l4.7,16.9c1.1,3.9,1.7,4.2,5.4,4.3l-0.5,2.3c-0.6,2.5-0.9,2.7-3.4,2.7 c-0.9,0-1.9,0-2.6-0.2l-0.4,0.3v1.1c0,2.1,0.8,2.7,4.2,2.7c4.8,0,5.4-0.9,6.8-5.9l6.6-24.2h-5.4L138.8,47z"></path> <path d="M165.7,21.6c-10.8,0-12.2,1.4-12.2,14.9c0,13.5,1.4,14.9,12,14.9c7.6,0,8.9-0.7,8.9-2.2v-1l-0.3-0.2 c-1.4,0.4-3.8,0.6-7.7,0.6c-8.8,0-9.5-0.6-9.5-12.1s0.7-12.1,9.5-12.1c3.9,0,6.5,0.3,7.7,0.5l0.3-0.2v-0.9 C174.5,22.3,173.4,21.6,165.7,21.6z"></path> <polygon points="180,51.1 183.3,51.1 183.3,19.8 180,20.3 "></polygon> <path d="M197.2,30c-7.7,0-8.8,1.6-8.8,10.7c0,9.1,1.1,10.7,8.8,10.7c7.7,0,8.8-1.6,8.8-10.7C206.1,31.6,205,30,197.2,30z M197.3,48.8c-4.8,0-5.5-0.7-5.5-8.1c0-7.4,0.7-8.1,5.5-8.1c4.8,0,5.5,0.7,5.5,8.1C202.8,48.1,202,48.8,197.3,48.8z"></path> <path d="M224.1,45.2c0,3.1-2.2,3.6-5.5,3.6c-3.8,0-4.5-0.5-4.5-4.7V30.2h-3.3v14c0,6.3,1.3,7.2,6.8,7.2c4,0,5.4-0.6,6.6-2.4 c0.2,1.8,0.6,2.1,1.6,2.1h1.3l0.2-0.3V30.2h-3.3V45.2z"></path> <path d="M246.4,20.3V32c-1-1.7-2.7-2-6.4-2c-6.5,0-7.7,1.6-7.7,10.7c0,9.2,1.1,10.7,7.5,10.7c4.2,0,5.5-0.8,6.6-2.4 c0.2,1.8,0.6,2.1,1.6,2.1h1.3l0.3-0.3V19.8L246.4,20.3z M246.4,45.1c0,3.1-2.1,3.7-5.4,3.7c-4.8,0-5.4-0.7-5.4-8.1 c0-7.5,0.6-8.1,5.3-8.1c4.5,0,5.4,1,5.4,3.5V45.1z"></path> </g> <g> <path class="st0" d="M42.3,13.7c0,0.2,0,0.5-0.1,0.7l3.6,2.1c4.8,2.8,10.7,2.8,15.5,0.2L32.1-0.2l-7.6,4.4L36,10.8 c0.7-0.6,1.5-0.9,2.5-0.9C40.6,9.9,42.3,11.6,42.3,13.7z"></path> <path class="st0" d="M63,19c-2.9,1.6-6.1,2.5-9.3,2.5c-3.2,0-6.4-0.8-9.3-2.5l-3.7-2.1c-0.6,0.5-1.4,0.8-2.3,0.8 c-2.1,0-3.9-1.7-3.9-3.9c0-0.2,0-0.3,0-0.5l-13-7.5l-7.9,4.6l13.9,8c0.7-0.5,1.5-0.8,2.4-0.8c2.1,0,3.9,1.7,3.9,3.9 c0,0.2,0,0.3,0,0.5L46.2,29v11.6c0.6,0,1.1,0.2,1.6,0.5l16.6-9.6v-13l-0.3-0.2L63,19z"></path> <path class="st0" d="M5,41.8c-0.7-2,0.4-4.2,2.4-4.9l0-1.1c0-5.5-2.9-10.7-7.7-13.6v33.6l7.7,4.4l0-16.1C6.3,43.8,5.4,43,5,41.8z"></path> <path class="st0" d="M15.7,47.6c-0.7-1.9,0.3-4.1,2.2-4.8V29l9.1-5.2c-0.5-0.7-0.9-1.5-0.9-2.4c0-0.2,0-0.4,0.1-0.6L10.9,12 l-11.3,6.5V19l1.2,0.7c5.7,3.3,9.3,9.5,9.3,16.1l0,1.2c1,0.4,1.8,1.2,2.1,2.3c0.7,1.9-0.3,4-2.1,4.8l0,17.8l7.9,4.6V50 C17,49.6,16.1,48.8,15.7,47.6z"></path> <path class="st0" d="M48.6,47.1c-1.5,1.5-4,1.5-5.5,0c0,0,0,0,0,0l-11.1,6.4l-9.3-5.3c-0.4,0.8-1.1,1.4-2,1.8v18.2l11.2,6.5 l0.2-0.1l0-1.3c0-6.6,3.6-12.8,9.3-16.1l0,0c-0.5-1.3-0.2-2.9,0.9-4c1.5-1.5,4-1.5,5.5,0c0.1,0.1,0.1,0.1,0.2,0.2l16.3-9.4v-9.2 l-14.9,8.6C50,44.6,49.6,46.1,48.6,47.1z"></path> <path class="st0" d="M43.5,59.2L43,59.5c-4.8,2.7-7.8,7.8-7.9,13.3l29.3-16.9v-8.8L49.1,56c0,0.9-0.4,1.9-1.1,2.6 C46.8,59.8,44.9,60,43.5,59.2z"></path> <g> <path d="M43.7,36.9c-0.7-0.9-1.5-1.7-2.3-2.5c-0.8-0.8-1.8-1.4-2.7-2c-1-0.6-2-1.1-3.2-1.4c-0.6-0.2-1.1-0.3-1.7-0.4 c-0.6-0.1-1.2-0.1-1.8-0.2c-0.7,0-1.2,0.1-1.8,0.2c-0.6,0.1-1.2,0.2-1.7,0.4c-1.1,0.3-2.2,0.9-3.2,1.5c-1,0.6-1.9,1.3-2.7,2 c-0.9,0.8-1.6,1.5-2.3,2.5l-0.3,0.4l0.3,0.3c0.4,0.4,0.7,0.8,1.1,1.2c0.4,0.4,0.8,0.7,1.2,1.1c0.8,0.7,1.7,1.3,2.7,1.8 c-0.8-0.7-1.5-1.5-2.2-2.3c-0.3-0.4-0.7-0.8-1-1.2c-0.2-0.3-0.4-0.6-0.6-0.8c0.3-0.3,0.6-0.5,0.9-0.7c0.4-0.3,0.8-0.7,1.2-1 c0.9-0.6,1.7-1.2,2.7-1.7c0.7-0.4,1.4-0.6,2.1-0.9c-0.9,0.9-1.4,2.1-1.4,3.5c0,2.8,2.3,5.1,5.1,5.1s5.1-2.3,5.1-5.1 c0-1.3-0.5-2.6-1.4-3.5c0.7,0.3,1.4,0.5,2.1,0.9c0.9,0.5,1.8,1.1,2.7,1.7c0.4,0.3,0.8,0.6,1.3,1c0.3,0.2,0.6,0.5,0.9,0.7 c-0.2,0.3-0.4,0.6-0.6,0.8c-0.3,0.4-0.6,0.8-1,1.2c-0.7,0.8-1.4,1.6-2.2,2.3c0.9-0.5,1.8-1.1,2.7-1.8c0.4-0.3,0.8-0.7,1.2-1.1 c0.4-0.4,0.8-0.8,1.1-1.2l0.3-0.3L43.7,36.9z"></path> <circle class="st0" cx="31.9" cy="36.4" r="3.8"></circle> <circle cx="31.9" cy="36.3" r="1.9"></circle> <circle class="st1" cx="33.2" cy="35.1" r="0.8"></circle> </g> </g> </g> </svg> 